<?xml version="1.0" encoding="UTF-8" standalone="no"?><svg xmlns="http://www.w3.org/2000/svg" xmlns:xlink="http://www.w3.org/1999/xlink" contentScriptType="application/ecmascript" contentStyleType="text/css" height="648px" preserveAspectRatio="none" style="width:1141px;height:648px;" version="1.1" viewBox="0 0 1141 648" width="1141px" zoomAndPan="magnify"><defs><filter height="300%" id="f9mbhwul0f0tl" width="300%" x="-1" y="-1"><feGaussianBlur result="blurOut" stdDeviation="2.0"/><feColorMatrix in="blurOut" result="blurOut2" type="matrix" values="0 0 0 0 0 0 0 0 0 0 0 0 0 0 0 0 0 0 .4 0"/><feOffset dx="4.0" dy="4.0" in="blurOut2" result="blurOut3"/><feBlend in="SourceGraphic" in2="blurOut3" mode="normal"/></filter></defs><g><!--MD5=[b28fcb397abe995d6d4652e4c54b3002]
cluster common--><polygon fill="#FFFFFF" filter="url(#f9mbhwul0f0tl)" points="16,6,89,6,96,28.2969,726,28.2969,726,476.5,16,476.5,16,6" style="stroke:#000000;stroke-width:1.5;"/><line style="stroke:#000000;stroke-width:1.5;" x1="16" x2="96" y1="28.2969" y2="28.2969"/><text fill="#000000" font-family="sans-serif" font-size="14" font-weight="bold" lengthAdjust="spacing" textLength="67" x="20" y="20.9951">common</text><!--MD5=[f146a40fb465a3fb55c1c73418360d27]
cluster common.abcs--><polygon fill="#FFFFFF" filter="url(#f9mbhwul0f0tl)" points="329,49,372,49,379,71.2969,702,71.2969,702,250,329,250,329,49" style="stroke:#000000;stroke-width:1.5;"/><line style="stroke:#000000;stroke-width:1.5;" x1="329" x2="379" y1="71.2969" y2="71.2969"/><text fill="#000000" font-family="sans-serif" font-size="14" font-weight="bold" lengthAdjust="spacing" textLength="37" x="333" y="63.9951">abcs</text><!--MD5=[8f5fd7df5b472a668f1fa97192a61343]
cluster common.mixins--><polygon fill="#FFFFFF" filter="url(#f9mbhwul0f0tl)" points="40,310.5,96,310.5,103,332.7969,702,332.7969,702,452.5,40,452.5,40,310.5" style="stroke:#000000;stroke-width:1.5;"/><line style="stroke:#000000;stroke-width:1.5;" x1="40" x2="103" y1="332.7969" y2="332.7969"/><text fill="#000000" font-family="sans-serif" font-size="14" font-weight="bold" lengthAdjust="spacing" textLength="50" x="44" y="325.4951">mixins</text><!--MD5=[e9dc02ce82849aed21684bfab2350891]
cluster qrz--><polygon fill="#FFFFFF" filter="url(#f9mbhwul0f0tl)" points="750,274,782,274,789,296.2969,1124,296.2969,1124,641.5,750,641.5,750,274" style="stroke:#000000;stroke-width:1.5;"/><line style="stroke:#000000;stroke-width:1.5;" x1="750" x2="789" y1="296.2969" y2="296.2969"/><text fill="#000000" font-family="sans-serif" font-size="14" font-weight="bold" lengthAdjust="spacing" textLength="26" x="754" y="288.9951">qrz</text><!--MD5=[d6392724d13885daafba81f8c1a4801d]
cluster qrz.qrz--><polygon fill="#FFFFFF" filter="url(#f9mbhwul0f0tl)" points="774,317,806,317,813,339.2969,938,339.2969,938,446,774,446,774,317" style="stroke:#000000;stroke-width:1.5;"/><line style="stroke:#000000;stroke-width:1.5;" x1="774" x2="813" y1="339.2969" y2="339.2969"/><text fill="#000000" font-family="sans-serif" font-size="14" font-weight="bold" lengthAdjust="spacing" textLength="26" x="778" y="331.9951">qrz</text><!--MD5=[cbb3743d0b5086f36d2ce0bb80440c59]
cluster qrz.qrzasync--><polygon fill="#FFFFFF" filter="url(#f9mbhwul0f0tl)" points="946,500.5,1024,500.5,1031,522.7969,1100,522.7969,1100,617.5,946,617.5,946,500.5" style="stroke:#000000;stroke-width:1.5;"/><line style="stroke:#000000;stroke-width:1.5;" x1="946" x2="1031" y1="522.7969" y2="522.7969"/><text fill="#000000" font-family="sans-serif" font-size="14" font-weight="bold" lengthAdjust="spacing" textLength="72" x="950" y="515.4951">qrzasync</text><!--MD5=[df0e5998a76697d7a22003d09518c706]
cluster qrz.qrzsync--><polygon fill="#FFFFFF" filter="url(#f9mbhwul0f0tl)" points="774,500.5,843,500.5,850,522.7969,922,522.7969,922,617.5,774,617.5,774,500.5" style="stroke:#000000;stroke-width:1.5;"/><line style="stroke:#000000;stroke-width:1.5;" x1="774" x2="850" y1="522.7969" y2="522.7969"/><text fill="#000000" font-family="sans-serif" font-size="14" font-weight="bold" lengthAdjust="spacing" textLength="63" x="778" y="515.4951">qrzsync</text><!--MD5=[c944e231bb7350663e24ae61599136eb]
class common.abcs.LookupClientAbc--><rect codeLine="4" fill="#FEFECE" filter="url(#f9mbhwul0f0tl)" height="99.2188" id="common.abcs.LookupClientAbc" style="stroke:#A80036;stroke-width:1.5;" width="136" x="550" y="109.5"/><ellipse cx="565" cy="125.5" fill="#A9DCDF" rx="11" ry="11" style="stroke:#A80036;stroke-width:1.0;"/><path d="M565.1094,120.8438 L563.9531,125.9219 L566.2813,125.9219 L565.1094,120.8438 Z M563.625,118.6094 L566.6094,118.6094 L569.9688,131 L567.5156,131 L566.75,127.9375 L563.4688,127.9375 L562.7188,131 L560.2813,131 L563.625,118.6094 Z " fill="#000000"/><text fill="#000000" font-family="sans-serif" font-size="12" font-style="italic" lengthAdjust="spacing" textLength="104" x="579" y="129.6543">LookupClientAbc</text><line style="stroke:#A80036;stroke-width:1.5;" x1="551" x2="685" y1="141.5" y2="141.5"/><ellipse cx="561" cy="152.5" fill="none" rx="3" ry="3" style="stroke:#038048;stroke-width:1.0;"/><text fill="#000000" font-family="sans-serif" font-size="11" font-style="italic" lengthAdjust="spacing" textLength="42" x="570" y="155.7104">session</text><line style="stroke:#A80036;stroke-width:1.5;" x1="551" x2="685" y1="162.3047" y2="162.3047"/><ellipse cx="561" cy="173.3047" fill="#84BE84" rx="3" ry="3" style="stroke:#038048;stroke-width:1.0;"/><text fill="#000000" font-family="sans-serif" font-size="11" font-style="italic" lengthAdjust="spacing" textLength="46" x="570" y="176.5151">search()</text><rect fill="#F24D5C" height="6" style="stroke:#C82930;stroke-width:1.0;" width="6" x="558" y="183.1094"/><text fill="#000000" font-family="sans-serif" font-size="11" font-style="italic" lengthAdjust="spacing" textLength="102" x="570" y="189.3198">_process_search()</text><rect fill="#F24D5C" height="6" style="stroke:#C82930;stroke-width:1.0;" width="6" x="558" y="195.9141"/><text fill="#000000" font-family="sans-serif" font-size="11" font-style="italic" lengthAdjust="spacing" textLength="67" x="570" y="202.1245">_do_query()</text><!--MD5=[912c44c90a2b82b96996b64e289dfbe6]
class common.abcs.AuthMixinAbc--><rect codeLine="11" fill="#FEFECE" filter="url(#f9mbhwul0f0tl)" height="150.4375" id="common.abcs.AuthMixinAbc" style="stroke:#A80036;stroke-width:1.5;" width="170" x="345" y="84"/><ellipse cx="384.75" cy="100" fill="#A9DCDF" rx="11" ry="11" style="stroke:#A80036;stroke-width:1.0;"/><path d="M384.8594,95.3438 L383.7031,100.4219 L386.0313,100.4219 L384.8594,95.3438 Z M383.375,93.1094 L386.3594,93.1094 L389.7188,105.5 L387.2656,105.5 L386.5,102.4375 L383.2188,102.4375 L382.4688,105.5 L380.0313,105.5 L383.375,93.1094 Z " fill="#000000"/><text fill="#000000" font-family="sans-serif" font-size="12" font-style="italic" lengthAdjust="spacing" textLength="83" x="404.25" y="104.1543">AuthMixinAbc</text><line style="stroke:#A80036;stroke-width:1.5;" x1="346" x2="514" y1="116" y2="116"/><ellipse cx="356" cy="127" fill="none" rx="3" ry="3" style="stroke:#038048;stroke-width:1.0;"/><text fill="#000000" font-family="sans-serif" font-size="11" lengthAdjust="spacing" textLength="58" x="365" y="130.2104">username</text><ellipse cx="356" cy="139.8047" fill="none" rx="3" ry="3" style="stroke:#038048;stroke-width:1.0;"/><text fill="#000000" font-family="sans-serif" font-size="11" lengthAdjust="spacing" textLength="56" x="365" y="143.0151">password</text><ellipse cx="356" cy="152.6094" fill="none" rx="3" ry="3" style="stroke:#038048;stroke-width:1.0;"/><text fill="#000000" font-family="sans-serif" font-size="11" lengthAdjust="spacing" textLength="58" x="365" y="155.8198">useragent</text><ellipse cx="356" cy="165.4141" fill="none" rx="3" ry="3" style="stroke:#038048;stroke-width:1.0;"/><text fill="#000000" font-family="sans-serif" font-size="11" lengthAdjust="spacing" textLength="70" x="365" y="168.6245">session_key</text><line style="stroke:#A80036;stroke-width:1.5;" x1="346" x2="514" y1="175.2188" y2="175.2188"/><rect fill="#F24D5C" height="6" style="stroke:#C82930;stroke-width:1.0;" width="6" x="353" y="183.2188"/><text fill="#000000" font-family="sans-serif" font-size="11" font-style="italic" lengthAdjust="spacing" textLength="41" x="365" y="189.4292">_login()</text><rect fill="#F24D5C" height="6" style="stroke:#C82930;stroke-width:1.0;" width="6" x="353" y="196.0234"/><text fill="#000000" font-family="sans-serif" font-size="11" font-style="italic" lengthAdjust="spacing" textLength="91" x="365" y="202.2339">_process_login()</text><rect fill="#F24D5C" height="6" style="stroke:#C82930;stroke-width:1.0;" width="6" x="353" y="208.8281"/><text fill="#000000" font-family="sans-serif" font-size="11" font-style="italic" lengthAdjust="spacing" textLength="94" x="365" y="215.0386">_check_session()</text><rect fill="#F24D5C" height="6" style="stroke:#C82930;stroke-width:1.0;" width="6" x="353" y="221.6328"/><text fill="#000000" font-family="sans-serif" font-size="11" font-style="italic" lengthAdjust="spacing" textLength="144" x="365" y="227.8433">_process_check_session()</text><!--MD5=[8370553843340c656d698f0a44b9443b]
class common.mixins.AsyncMixin--><rect codeLine="24" fill="#FEFECE" filter="url(#f9mbhwul0f0tl)" height="52.8047" id="common.mixins.AsyncMixin" style="stroke:#A80036;stroke-width:1.5;" width="99" x="586.5" y="364.5"/><ellipse cx="601.5" cy="380.5" fill="#B4A7E5" rx="11" ry="11" style="stroke:#A80036;stroke-width:1.0;"/><path d="M597.4219,376.2656 L597.4219,374.1094 L604.8125,374.1094 L604.8125,376.2656 L602.3438,376.2656 L602.3438,384.3438 L604.8125,384.3438 L604.8125,386.5 L597.4219,386.5 L597.4219,384.3438 L599.8906,384.3438 L599.8906,376.2656 L597.4219,376.2656 Z " fill="#000000"/><text fill="#000000" font-family="sans-serif" font-size="12" font-style="italic" lengthAdjust="spacing" textLength="67" x="615.5" y="384.6543">AsyncMixin</text><line style="stroke:#A80036;stroke-width:1.5;" x1="587.5" x2="684.5" y1="396.5" y2="396.5"/><ellipse cx="597.5" cy="407.5" fill="none" rx="3" ry="3" style="stroke:#038048;stroke-width:1.0;"/><text fill="#000000" font-family="sans-serif" font-size="11" lengthAdjust="spacing" textLength="45" x="606.5" y="410.7104">session</text><!--MD5=[4ed3986bb33a6c6de6dcbbf1964b8b19]
class common.mixins.AsyncXmlAuthMixin--><rect codeLine="28" fill="#FEFECE" filter="url(#f9mbhwul0f0tl)" height="91.2188" id="common.mixins.AsyncXmlAuthMixin" style="stroke:#A80036;stroke-width:1.5;" width="175" x="376.5" y="345.5"/><ellipse cx="402.75" cy="361.5" fill="#B4A7E5" rx="11" ry="11" style="stroke:#A80036;stroke-width:1.0;"/><path d="M398.6719,357.2656 L398.6719,355.1094 L406.0625,355.1094 L406.0625,357.2656 L403.5938,357.2656 L403.5938,365.3438 L406.0625,365.3438 L406.0625,367.5 L398.6719,367.5 L398.6719,365.3438 L401.1406,365.3438 L401.1406,357.2656 L398.6719,357.2656 Z " fill="#000000"/><text fill="#000000" font-family="sans-serif" font-size="12" font-style="italic" lengthAdjust="spacing" textLength="118" x="419.25" y="365.6543">AsyncXmlAuthMixin</text><line style="stroke:#A80036;stroke-width:1.5;" x1="377.5" x2="550.5" y1="377.5" y2="377.5"/><rect fill="#F24D5C" height="6" style="stroke:#C82930;stroke-width:1.0;" width="6" x="384.5" y="385.5"/><text fill="#000000" font-family="sans-serif" font-size="11" lengthAdjust="spacing" textLength="41" x="396.5" y="391.7104">_login()</text><rect fill="#F24D5C" height="6" style="stroke:#C82930;stroke-width:1.0;" width="6" x="384.5" y="398.3047"/><text fill="#000000" font-family="sans-serif" font-size="11" lengthAdjust="spacing" textLength="97" x="396.5" y="404.5151">_check_session()</text><rect fill="#F24D5C" height="6" style="stroke:#C82930;stroke-width:1.0;" width="6" x="384.5" y="411.1094"/><text fill="#000000" font-family="sans-serif" font-size="11" lengthAdjust="spacing" textLength="93" x="396.5" y="417.3198">_process_login()</text><rect fill="#F24D5C" height="6" style="stroke:#C82930;stroke-width:1.0;" width="6" x="384.5" y="423.9141"/><text fill="#000000" font-family="sans-serif" font-size="11" lengthAdjust="spacing" textLength="149" x="396.5" y="430.1245">_process_check_session()</text><!--MD5=[0e20bde410acad0d1807dd66ce71866f]
class common.mixins.SyncMixin--><rect codeLine="35" fill="#FEFECE" filter="url(#f9mbhwul0f0tl)" height="52.8047" id="common.mixins.SyncMixin" style="stroke:#A80036;stroke-width:1.5;" width="93" x="248.5" y="364.5"/><ellipse cx="263.5" cy="380.5" fill="#B4A7E5" rx="11" ry="11" style="stroke:#A80036;stroke-width:1.0;"/><path d="M259.4219,376.2656 L259.4219,374.1094 L266.8125,374.1094 L266.8125,376.2656 L264.3438,376.2656 L264.3438,384.3438 L266.8125,384.3438 L266.8125,386.5 L259.4219,386.5 L259.4219,384.3438 L261.8906,384.3438 L261.8906,376.2656 L259.4219,376.2656 Z " fill="#000000"/><text fill="#000000" font-family="sans-serif" font-size="12" font-style="italic" lengthAdjust="spacing" textLength="61" x="277.5" y="384.6543">SyncMixin</text><line style="stroke:#A80036;stroke-width:1.5;" x1="249.5" x2="340.5" y1="396.5" y2="396.5"/><ellipse cx="259.5" cy="407.5" fill="none" rx="3" ry="3" style="stroke:#038048;stroke-width:1.0;"/><text fill="#000000" font-family="sans-serif" font-size="11" lengthAdjust="spacing" textLength="45" x="268.5" y="410.7104">session</text><!--MD5=[ede3e645c10f7fb76526ea122c879bc3]
class common.mixins.SyncXmlAuthMixin--><rect codeLine="39" fill="#FEFECE" filter="url(#f9mbhwul0f0tl)" height="91.2188" id="common.mixins.SyncXmlAuthMixin" style="stroke:#A80036;stroke-width:1.5;" width="157" x="56.5" y="345.5"/><ellipse cx="77.35" cy="361.5" fill="#B4A7E5" rx="11" ry="11" style="stroke:#A80036;stroke-width:1.0;"/><path d="M73.2719,357.2656 L73.2719,355.1094 L80.6625,355.1094 L80.6625,357.2656 L78.1938,357.2656 L78.1938,365.3438 L80.6625,365.3438 L80.6625,367.5 L73.2719,367.5 L73.2719,365.3438 L75.7406,365.3438 L75.7406,357.2656 L73.2719,357.2656 Z " fill="#000000"/><text fill="#000000" font-family="sans-serif" font-size="12" font-style="italic" lengthAdjust="spacing" textLength="112" x="92.65" y="365.6543">SyncXmlAuthMixin</text><line style="stroke:#A80036;stroke-width:1.5;" x1="57.5" x2="212.5" y1="377.5" y2="377.5"/><rect fill="#F24D5C" height="6" style="stroke:#C82930;stroke-width:1.0;" width="6" x="64.5" y="385.5"/><text fill="#000000" font-family="sans-serif" font-size="11" lengthAdjust="spacing" textLength="41" x="76.5" y="391.7104">_login()</text><rect fill="#F24D5C" height="6" style="stroke:#C82930;stroke-width:1.0;" width="6" x="64.5" y="398.3047"/><text fill="#000000" font-family="sans-serif" font-size="11" lengthAdjust="spacing" textLength="97" x="76.5" y="404.5151">_check_session()</text><rect fill="#F24D5C" height="6" style="stroke:#C82930;stroke-width:1.0;" width="6" x="64.5" y="411.1094"/><text fill="#000000" font-family="sans-serif" font-size="11" lengthAdjust="spacing" textLength="93" x="76.5" y="417.3198">_process_login()</text><rect fill="#F24D5C" height="6" style="stroke:#C82930;stroke-width:1.0;" width="6" x="64.5" y="423.9141"/><text fill="#000000" font-family="sans-serif" font-size="11" lengthAdjust="spacing" textLength="131" x="76.5" y="430.1245">_process_check_login()</text><!--MD5=[ff5e2659b0c0634defd2151629dbc8f3]
class qrz.qrz.QrzClientAbc--><rect codeLine="50" fill="#FEFECE" filter="url(#f9mbhwul0f0tl)" height="78.4141" id="qrz.qrz.QrzClientAbc" style="stroke:#A80036;stroke-width:1.5;" width="131" x="790.5" y="352"/><ellipse cx="815.4" cy="368" fill="#A9DCDF" rx="11" ry="11" style="stroke:#A80036;stroke-width:1.0;"/><path d="M815.5094,363.3438 L814.3531,368.4219 L816.6813,368.4219 L815.5094,363.3438 Z M814.025,361.1094 L817.0094,361.1094 L820.3688,373.5 L817.9156,373.5 L817.15,370.4375 L813.8688,370.4375 L813.1188,373.5 L810.6813,373.5 L814.025,361.1094 Z " fill="#000000"/><text fill="#000000" font-family="sans-serif" font-size="12" font-style="italic" lengthAdjust="spacing" textLength="77" x="831.6" y="372.1543">QrzClientAbc</text><line style="stroke:#A80036;stroke-width:1.5;" x1="791.5" x2="920.5" y1="384" y2="384"/><ellipse cx="801.5" cy="395" fill="#84BE84" rx="3" ry="3" style="stroke:#038048;stroke-width:1.0;"/><text fill="#000000" font-family="sans-serif" font-size="11" font-style="italic" lengthAdjust="spacing" textLength="46" x="810.5" y="398.2104">search()</text><rect fill="#F24D5C" height="6" style="stroke:#C82930;stroke-width:1.0;" width="6" x="798.5" y="404.8047"/><text fill="#000000" font-family="sans-serif" font-size="11" font-style="italic" lengthAdjust="spacing" textLength="67" x="810.5" y="411.0151">_do_query()</text><rect fill="#F24D5C" height="6" style="stroke:#C82930;stroke-width:1.0;" width="6" x="798.5" y="417.6094"/><text fill="#000000" font-family="sans-serif" font-size="11" lengthAdjust="spacing" textLength="105" x="810.5" y="423.8198">_process_search()</text><!--MD5=[0e3c59cddabe99b494a3a63d004ccba6]
class qrz.qrzasync.QrzAsyncClient--><rect codeLine="58" fill="#FEFECE" filter="url(#f9mbhwul0f0tl)" height="65.6094" id="qrz.qrzasync.QrzAsyncClient" style="stroke:#A80036;stroke-width:1.5;" width="122" x="962" y="535.5"/><ellipse cx="977" cy="551.5" fill="#ADD1B2" rx="11" ry="11" style="stroke:#A80036;stroke-width:1.0;"/><path d="M979.9688,557.1406 Q979.3906,557.4375 978.75,557.5781 Q978.1094,557.7344 977.4063,557.7344 Q974.9063,557.7344 973.5781,556.0938 Q972.2656,554.4375 972.2656,551.3125 Q972.2656,548.1875 973.5781,546.5313 Q974.9063,544.875 977.4063,544.875 Q978.1094,544.875 978.75,545.0313 Q979.4063,545.1875 979.9688,545.4844 L979.9688,548.2031 Q979.3438,547.625 978.75,547.3594 Q978.1563,547.0781 977.5313,547.0781 Q976.1875,547.0781 975.5,548.1563 Q974.8125,549.2188 974.8125,551.3125 Q974.8125,553.4063 975.5,554.4844 Q976.1875,555.5469 977.5313,555.5469 Q978.1563,555.5469 978.75,555.2813 Q979.3438,555 979.9688,554.4219 L979.9688,557.1406 Z " fill="#000000"/><text fill="#000000" font-family="sans-serif" font-size="12" lengthAdjust="spacing" textLength="90" x="991" y="555.6543">QrzAsyncClient</text><line style="stroke:#A80036;stroke-width:1.5;" x1="963" x2="1083" y1="567.5" y2="567.5"/><ellipse cx="973" cy="578.5" fill="#84BE84" rx="3" ry="3" style="stroke:#038048;stroke-width:1.0;"/><text fill="#000000" font-family="sans-serif" font-size="11" lengthAdjust="spacing" textLength="47" x="982" y="581.7104">search()</text><rect fill="#F24D5C" height="6" style="stroke:#C82930;stroke-width:1.0;" width="6" x="970" y="588.3047"/><text fill="#000000" font-family="sans-serif" font-size="11" lengthAdjust="spacing" textLength="66" x="982" y="594.5151">_do_query()</text><!--MD5=[6afe11c14b30d11bf3b9ed7bc3b01253]
class qrz.qrzsync.QrzSyncClient--><rect codeLine="65" fill="#FEFECE" filter="url(#f9mbhwul0f0tl)" height="65.6094" id="qrz.qrzsync.QrzSyncClient" style="stroke:#A80036;stroke-width:1.5;" width="115" x="790.5" y="535.5"/><ellipse cx="805.5" cy="551.5" fill="#ADD1B2" rx="11" ry="11" style="stroke:#A80036;stroke-width:1.0;"/><path d="M808.4688,557.1406 Q807.8906,557.4375 807.25,557.5781 Q806.6094,557.7344 805.9063,557.7344 Q803.4063,557.7344 802.0781,556.0938 Q800.7656,554.4375 800.7656,551.3125 Q800.7656,548.1875 802.0781,546.5313 Q803.4063,544.875 805.9063,544.875 Q806.6094,544.875 807.25,545.0313 Q807.9063,545.1875 808.4688,545.4844 L808.4688,548.2031 Q807.8438,547.625 807.25,547.3594 Q806.6563,547.0781 806.0313,547.0781 Q804.6875,547.0781 804,548.1563 Q803.3125,549.2188 803.3125,551.3125 Q803.3125,553.4063 804,554.4844 Q804.6875,555.5469 806.0313,555.5469 Q806.6563,555.5469 807.25,555.2813 Q807.8438,555 808.4688,554.4219 L808.4688,557.1406 Z " fill="#000000"/><text fill="#000000" font-family="sans-serif" font-size="12" lengthAdjust="spacing" textLength="83" x="819.5" y="555.6543">QrzSyncClient</text><line style="stroke:#A80036;stroke-width:1.5;" x1="791.5" x2="904.5" y1="567.5" y2="567.5"/><ellipse cx="801.5" cy="578.5" fill="#84BE84" rx="3" ry="3" style="stroke:#038048;stroke-width:1.0;"/><text fill="#000000" font-family="sans-serif" font-size="11" lengthAdjust="spacing" textLength="47" x="810.5" y="581.7104">search()</text><rect fill="#F24D5C" height="6" style="stroke:#C82930;stroke-width:1.0;" width="6" x="798.5" y="588.3047"/><text fill="#000000" font-family="sans-serif" font-size="11" lengthAdjust="spacing" textLength="66" x="810.5" y="594.5151">_do_query()</text><!--MD5=[ecb9a05a69ad9b200c9196e63e829acc]
reverse link qrz.qrz.QrzClientAbc to qrz.qrzasync.QrzAsyncClient--><path codeLine="72" d="M906.28,444.84 C934.34,474.32 968.37,510.09 992.43,535.37 " fill="none" id="qrz.qrz.QrzClientAbc-backto-qrz.qrzasync.QrzAsyncClient" style="stroke:#A80036;stroke-width:1.0;"/><polygon fill="none" points="900.95,449.39,892.24,430.08,911.09,439.74,900.95,449.39" style="stroke:#A80036;stroke-width:1.0;"/><!--MD5=[89a9693cce6260e3cd2e367d6b633af1]
reverse link common.mixins.AsyncMixin to qrz.qrzasync.QrzAsyncClient--><path codeLine="73" d="M679.75,430.27 C705.38,450.28 739.44,472.96 774,484.5 C836.48,505.36 860.04,470.14 922,492.5 C947.27,501.62 971.57,519.29 990,535.19 " fill="none" id="common.mixins.AsyncMixin-backto-qrz.qrzasync.QrzAsyncClient" style="stroke:#A80036;stroke-width:1.0;"/><polygon fill="none" points="675.32,435.69,664.2,417.65,684.14,424.82,675.32,435.69" style="stroke:#A80036;stroke-width:1.0;"/><!--MD5=[9a66aa94a4b857c1b7de5e6dd19a9a12]
reverse link common.mixins.AsyncXmlAuthMixin to qrz.qrzasync.QrzAsyncClient--><path codeLine="74" d="M515.94,450.38 C531.52,464.11 549.65,476.94 569,484.5 C605.54,498.78 884.89,479.76 922,492.5 C947.61,501.29 972.11,519.16 990.56,535.26 " fill="none" id="common.mixins.AsyncXmlAuthMixin-backto-qrz.qrzasync.QrzAsyncClient" style="stroke:#A80036;stroke-width:1.0;"/><polygon fill="none" points="510.99,455.33,501.27,436.51,520.61,445.16,510.99,455.33" style="stroke:#A80036;stroke-width:1.0;"/><!--MD5=[b8ecc72dc9d74ddcb723d4982f31cebd]
reverse link qrz.qrz.QrzClientAbc to qrz.qrzsync.QrzSyncClient--><path codeLine="76" d="M853.35,450.18 C852.05,478.55 850.55,511.6 849.46,535.37 " fill="none" id="qrz.qrz.QrzClientAbc-backto-qrz.qrzsync.QrzSyncClient" style="stroke:#A80036;stroke-width:1.0;"/><polygon fill="none" points="846.36,449.74,854.26,430.08,860.35,450.38,846.36,449.74" style="stroke:#A80036;stroke-width:1.0;"/><!--MD5=[549d255ac0e71e545622b04d01582502]
reverse link common.mixins.SyncMixin to qrz.qrzsync.QrzSyncClient--><path codeLine="77" d="M315.23,435.34 C325.78,453.3 340.42,472.67 359,484.5 C429.92,529.64 677.11,554.21 790.44,563.32 " fill="none" id="common.mixins.SyncMixin-backto-qrz.qrzsync.QrzSyncClient" style="stroke:#A80036;stroke-width:1.0;"/><polygon fill="none" points="308.95,438.44,305.71,417.5,321.3,431.85,308.95,438.44" style="stroke:#A80036;stroke-width:1.0;"/><!--MD5=[8a4ef978154019e781eaf3266f745d25]
reverse link common.mixins.SyncXmlAuthMixin to qrz.qrzsync.QrzSyncClient--><path codeLine="78" d="M184.33,450.89 C198.11,463.93 214.01,476.29 231,484.5 C329.28,532.01 656.62,556.22 790.34,564.32 " fill="none" id="common.mixins.SyncXmlAuthMixin-backto-qrz.qrzsync.QrzSyncClient" style="stroke:#A80036;stroke-width:1.0;"/><polygon fill="none" points="179.33,455.79,170.25,436.65,189.28,445.95,179.33,455.79" style="stroke:#A80036;stroke-width:1.0;"/><!--MD5=[efe57a43c1b2f49635531c1194ef7dd9]
reverse link common.abcs.LookupClientAbc to qrz.qrz.QrzClientAbc--><path codeLine="80" d="M683.05,222.86 C725.79,264.17 780.31,316.86 816.6,351.92 " fill="none" id="common.abcs.LookupClientAbc-backto-qrz.qrz.QrzClientAbc" style="stroke:#A80036;stroke-width:1.0;"/><polygon fill="none" points="677.99,227.71,668.47,208.78,687.72,217.64,677.99,227.71" style="stroke:#A80036;stroke-width:1.0;"/><!--MD5=[992263449fddcadd937d96be284546b7]
reverse link common.abcs.AuthMixinAbc to common.mixins.AsyncXmlAuthMixin--><path codeLine="82" d="M443.87,253.86 C448.54,285.45 453.54,319.25 457.39,345.26 " fill="none" id="common.abcs.AuthMixinAbc-backto-common.mixins.AsyncXmlAuthMixin" style="stroke:#A80036;stroke-width:1.0;"/><polygon fill="none" points="436.95,254.85,440.94,234.04,450.79,252.8,436.95,254.85" style="stroke:#A80036;stroke-width:1.0;"/><!--MD5=[95a2e22cd550707a797007aa2c76a65e]
reverse link common.abcs.AuthMixinAbc to common.mixins.SyncXmlAuthMixin--><path codeLine="83" d="M326.5,204.64 C294.09,221.29 259.4,242.05 231,266 C204.15,288.64 179.99,319.95 162.62,345.45 " fill="none" id="common.abcs.AuthMixinAbc-backto-common.mixins.SyncXmlAuthMixin" style="stroke:#A80036;stroke-width:1.0;"/><polygon fill="none" points="323.71,198.21,344.74,195.58,329.95,210.75,323.71,198.21" style="stroke:#A80036;stroke-width:1.0;"/><!--MD5=[2e8d3dfe7a9c2c5b7a1d5b4adc8319d0]
@startuml cltinheritance

namespace common {
    namespace abcs {
        abstract LookupClientAbc {
            + {abstract} session
            + {abstract} search()
            - {abstract} _process_search()
            - {abstract} _do_query()
        }

        abstract AuthMixinAbc {
            + username
            + password
            + useragent
            + session_key
            - {abstract} _login()
            - {abstract} _process_login()
            - {abstract} _check_session()
            - {abstract} _process_check_session()
        }
    }

    namespace mixins {
        interface AsyncMixin {
            + session
        }

        interface AsyncXmlAuthMixin {
            - _login()
            - _check_session()
            - _process_login()
            - _process_check_session()
        }

        interface SyncMixin {
            + session
        }

        interface SyncXmlAuthMixin {
            - _login()
            - _check_session()
            - _process_login()
            - _process_check_login()
        }
    }
}

namespace qrz {
    namespace qrz {
        abstract QrzClientAbc {
            + {abstract} search()
            - {abstract} _do_query()
            - _process_search()
        }
    }

    namespace qrzasync {
        class QrzAsyncClient {
            + search()
            - _do_query()
        }
    }

    namespace qrzsync {
        class QrzSyncClient {
            + search()
            - _do_query()
        }
    }
}

qrz.qrz.QrzClientAbc <|- - qrz.qrzasync.QrzAsyncClient
common.mixins.AsyncMixin <|- - qrz.qrzasync.QrzAsyncClient
common.mixins.AsyncXmlAuthMixin <|- - qrz.qrzasync.QrzAsyncClient

qrz.qrz.QrzClientAbc <|- - qrz.qrzsync.QrzSyncClient
common.mixins.SyncMixin <|- - qrz.qrzsync.QrzSyncClient
common.mixins.SyncXmlAuthMixin <|- - qrz.qrzsync.QrzSyncClient

common.abcs.LookupClientAbc <|- - qrz.qrz.QrzClientAbc

common.abcs.AuthMixinAbc <|- - common.mixins.AsyncXmlAuthMixin
common.abcs.AuthMixinAbc <|- - common.mixins.SyncXmlAuthMixin

hide empty members

@enduml

PlantUML version 1.2021.00(Sun Jan 10 05:25:05 EST 2021)
(GPL source distribution)
Java Runtime: OpenJDK Runtime Environment
JVM: OpenJDK 64-Bit Server VM
Default Encoding: UTF-8
Language: en
Country: US
--></g></svg>