<?xml version="1.0" encoding="UTF-8" standalone="no"?><svg xmlns="http://www.w3.org/2000/svg" xmlns:xlink="http://www.w3.org/1999/xlink" contentScriptType="application/ecmascript" contentStyleType="text/css" height="648px" preserveAspectRatio="none" style="width:1590px;height:648px;" version="1.1" viewBox="0 0 1590 648" width="1590px" zoomAndPan="magnify"><defs><filter height="300%" id="f1w2p1q2hd3ux4" width="300%" x="-1" y="-1"><feGaussianBlur result="blurOut" stdDeviation="2.0"/><feColorMatrix in="blurOut" result="blurOut2" type="matrix" values="0 0 0 0 0 0 0 0 0 0 0 0 0 0 0 0 0 0 .4 0"/><feOffset dx="4.0" dy="4.0" in="blurOut2" result="blurOut3"/><feBlend in="SourceGraphic" in2="blurOut3" mode="normal"/></filter></defs><g><!--MD5=[b28fcb397abe995d6d4652e4c54b3002]
cluster common--><polygon fill="#FFFFFF" filter="url(#f1w2p1q2hd3ux4)" points="414,6,487,6,494,28.2969,1123,28.2969,1123,476.5,414,476.5,414,6" style="stroke:#000000;stroke-width:1.5;"/><line style="stroke:#000000;stroke-width:1.5;" x1="414" x2="494" y1="28.2969" y2="28.2969"/><text fill="#000000" font-family="sans-serif" font-size="14" font-weight="bold" lengthAdjust="spacing" textLength="67" x="418" y="20.9951">common</text><!--MD5=[f146a40fb465a3fb55c1c73418360d27]
cluster common.abcs--><polygon fill="#FFFFFF" filter="url(#f1w2p1q2hd3ux4)" points="521,49,564,49,571,71.2969,894,71.2969,894,250,521,250,521,49" style="stroke:#000000;stroke-width:1.5;"/><line style="stroke:#000000;stroke-width:1.5;" x1="521" x2="571" y1="71.2969" y2="71.2969"/><text fill="#000000" font-family="sans-serif" font-size="14" font-weight="bold" lengthAdjust="spacing" textLength="37" x="525" y="63.9951">abcs</text><!--MD5=[8f5fd7df5b472a668f1fa97192a61343]
cluster common.mixins--><polygon fill="#FFFFFF" filter="url(#f1w2p1q2hd3ux4)" points="438,310.5,494,310.5,501,332.7969,1099,332.7969,1099,452.5,438,452.5,438,310.5" style="stroke:#000000;stroke-width:1.5;"/><line style="stroke:#000000;stroke-width:1.5;" x1="438" x2="501" y1="332.7969" y2="332.7969"/><text fill="#000000" font-family="sans-serif" font-size="14" font-weight="bold" lengthAdjust="spacing" textLength="50" x="442" y="325.4951">mixins</text><!--MD5=[e9dc02ce82849aed21684bfab2350891]
cluster qrz--><polygon fill="#FFFFFF" filter="url(#f1w2p1q2hd3ux4)" points="16,274,48,274,55,296.2969,390,296.2969,390,641.5,16,641.5,16,274" style="stroke:#000000;stroke-width:1.5;"/><line style="stroke:#000000;stroke-width:1.5;" x1="16" x2="55" y1="296.2969" y2="296.2969"/><text fill="#000000" font-family="sans-serif" font-size="14" font-weight="bold" lengthAdjust="spacing" textLength="26" x="20" y="288.9951">qrz</text><!--MD5=[d6392724d13885daafba81f8c1a4801d]
cluster qrz.qrz--><polygon fill="#FFFFFF" filter="url(#f1w2p1q2hd3ux4)" points="202,317,234,317,241,339.2969,366,339.2969,366,446,202,446,202,317" style="stroke:#000000;stroke-width:1.5;"/><line style="stroke:#000000;stroke-width:1.5;" x1="202" x2="241" y1="339.2969" y2="339.2969"/><text fill="#000000" font-family="sans-serif" font-size="14" font-weight="bold" lengthAdjust="spacing" textLength="26" x="206" y="331.9951">qrz</text><!--MD5=[cbb3743d0b5086f36d2ce0bb80440c59]
cluster qrz.qrzasync--><polygon fill="#FFFFFF" filter="url(#f1w2p1q2hd3ux4)" points="40,500.5,118,500.5,125,522.7969,194,522.7969,194,617.5,40,617.5,40,500.5" style="stroke:#000000;stroke-width:1.5;"/><line style="stroke:#000000;stroke-width:1.5;" x1="40" x2="125" y1="522.7969" y2="522.7969"/><text fill="#000000" font-family="sans-serif" font-size="14" font-weight="bold" lengthAdjust="spacing" textLength="72" x="44" y="515.4951">qrzasync</text><!--MD5=[df0e5998a76697d7a22003d09518c706]
cluster qrz.qrzsync--><polygon fill="#FFFFFF" filter="url(#f1w2p1q2hd3ux4)" points="218,500.5,287,500.5,294,522.7969,366,522.7969,366,617.5,218,617.5,218,500.5" style="stroke:#000000;stroke-width:1.5;"/><line style="stroke:#000000;stroke-width:1.5;" x1="218" x2="294" y1="522.7969" y2="522.7969"/><text fill="#000000" font-family="sans-serif" font-size="14" font-weight="bold" lengthAdjust="spacing" textLength="63" x="222" y="515.4951">qrzsync</text><!--MD5=[d61916df81cadb48fdf6158af4206536]
cluster callook--><polygon fill="#FFFFFF" filter="url(#f1w2p1q2hd3ux4)" points="1147,280,1208,280,1215,302.2969,1573,302.2969,1573,641.5,1147,641.5,1147,280" style="stroke:#000000;stroke-width:1.5;"/><line style="stroke:#000000;stroke-width:1.5;" x1="1147" x2="1215" y1="302.2969" y2="302.2969"/><text fill="#000000" font-family="sans-serif" font-size="14" font-weight="bold" lengthAdjust="spacing" textLength="55" x="1151" y="294.9951">callook</text><!--MD5=[d790fcd52a2082340fffa69589fa5662]
cluster callook.callook--><polygon fill="#FFFFFF" filter="url(#f1w2p1q2hd3ux4)" points="1174,323,1235,323,1242,345.2969,1342,345.2969,1342,440,1174,440,1174,323" style="stroke:#000000;stroke-width:1.5;"/><line style="stroke:#000000;stroke-width:1.5;" x1="1174" x2="1242" y1="345.2969" y2="345.2969"/><text fill="#000000" font-family="sans-serif" font-size="14" font-weight="bold" lengthAdjust="spacing" textLength="55" x="1178" y="337.9951">callook</text><!--MD5=[20682df438e27f63e4d4ab9035cd1fdd]
cluster callook.callookasync--><polygon fill="#FFFFFF" filter="url(#f1w2p1q2hd3ux4)" points="1369,500.5,1476,500.5,1483,522.7969,1549,522.7969,1549,617.5,1369,617.5,1369,500.5" style="stroke:#000000;stroke-width:1.5;"/><line style="stroke:#000000;stroke-width:1.5;" x1="1369" x2="1483" y1="522.7969" y2="522.7969"/><text fill="#000000" font-family="sans-serif" font-size="14" font-weight="bold" lengthAdjust="spacing" textLength="101" x="1373" y="515.4951">callookasync</text><!--MD5=[80c177161f8529f0dd6a71f8418e2a75]
cluster callook.callooksync--><polygon fill="#FFFFFF" filter="url(#f1w2p1q2hd3ux4)" points="1171,500.5,1269,500.5,1276,522.7969,1345,522.7969,1345,617.5,1171,617.5,1171,500.5" style="stroke:#000000;stroke-width:1.5;"/><line style="stroke:#000000;stroke-width:1.5;" x1="1171" x2="1276" y1="522.7969" y2="522.7969"/><text fill="#000000" font-family="sans-serif" font-size="14" font-weight="bold" lengthAdjust="spacing" textLength="92" x="1175" y="515.4951">callooksync</text><!--MD5=[c944e231bb7350663e24ae61599136eb]
class common.abcs.LookupClientAbc--><rect codeLine="4" fill="#FEFECE" filter="url(#f1w2p1q2hd3ux4)" height="99.2188" id="common.abcs.LookupClientAbc" style="stroke:#A80036;stroke-width:1.5;" width="136" x="537" y="109.5"/><ellipse cx="552" cy="125.5" fill="#A9DCDF" rx="11" ry="11" style="stroke:#A80036;stroke-width:1.0;"/><path d="M552.1094,120.8438 L550.9531,125.9219 L553.2813,125.9219 L552.1094,120.8438 Z M550.625,118.6094 L553.6094,118.6094 L556.9688,131 L554.5156,131 L553.75,127.9375 L550.4688,127.9375 L549.7188,131 L547.2813,131 L550.625,118.6094 Z " fill="#000000"/><text fill="#000000" font-family="sans-serif" font-size="12" font-style="italic" lengthAdjust="spacing" textLength="104" x="566" y="129.6543">LookupClientAbc</text><line style="stroke:#A80036;stroke-width:1.5;" x1="538" x2="672" y1="141.5" y2="141.5"/><ellipse cx="548" cy="152.5" fill="none" rx="3" ry="3" style="stroke:#038048;stroke-width:1.0;"/><text fill="#000000" font-family="sans-serif" font-size="11" font-style="italic" lengthAdjust="spacing" textLength="42" x="557" y="155.7104">session</text><line style="stroke:#A80036;stroke-width:1.5;" x1="538" x2="672" y1="162.3047" y2="162.3047"/><ellipse cx="548" cy="173.3047" fill="#84BE84" rx="3" ry="3" style="stroke:#038048;stroke-width:1.0;"/><text fill="#000000" font-family="sans-serif" font-size="11" font-style="italic" lengthAdjust="spacing" textLength="46" x="557" y="176.5151">search()</text><rect fill="#F24D5C" height="6" style="stroke:#C82930;stroke-width:1.0;" width="6" x="545" y="183.1094"/><text fill="#000000" font-family="sans-serif" font-size="11" font-style="italic" lengthAdjust="spacing" textLength="102" x="557" y="189.3198">_process_search()</text><rect fill="#F24D5C" height="6" style="stroke:#C82930;stroke-width:1.0;" width="6" x="545" y="195.9141"/><text fill="#000000" font-family="sans-serif" font-size="11" font-style="italic" lengthAdjust="spacing" textLength="67" x="557" y="202.1245">_do_query()</text><!--MD5=[912c44c90a2b82b96996b64e289dfbe6]
class common.abcs.AuthMixinAbc--><rect codeLine="11" fill="#FEFECE" filter="url(#f1w2p1q2hd3ux4)" height="150.4375" id="common.abcs.AuthMixinAbc" style="stroke:#A80036;stroke-width:1.5;" width="170" x="708" y="84"/><ellipse cx="747.75" cy="100" fill="#A9DCDF" rx="11" ry="11" style="stroke:#A80036;stroke-width:1.0;"/><path d="M747.8594,95.3438 L746.7031,100.4219 L749.0313,100.4219 L747.8594,95.3438 Z M746.375,93.1094 L749.3594,93.1094 L752.7188,105.5 L750.2656,105.5 L749.5,102.4375 L746.2188,102.4375 L745.4688,105.5 L743.0313,105.5 L746.375,93.1094 Z " fill="#000000"/><text fill="#000000" font-family="sans-serif" font-size="12" font-style="italic" lengthAdjust="spacing" textLength="83" x="767.25" y="104.1543">AuthMixinAbc</text><line style="stroke:#A80036;stroke-width:1.5;" x1="709" x2="877" y1="116" y2="116"/><ellipse cx="719" cy="127" fill="none" rx="3" ry="3" style="stroke:#038048;stroke-width:1.0;"/><text fill="#000000" font-family="sans-serif" font-size="11" lengthAdjust="spacing" textLength="58" x="728" y="130.2104">username</text><ellipse cx="719" cy="139.8047" fill="none" rx="3" ry="3" style="stroke:#038048;stroke-width:1.0;"/><text fill="#000000" font-family="sans-serif" font-size="11" lengthAdjust="spacing" textLength="56" x="728" y="143.0151">password</text><ellipse cx="719" cy="152.6094" fill="none" rx="3" ry="3" style="stroke:#038048;stroke-width:1.0;"/><text fill="#000000" font-family="sans-serif" font-size="11" lengthAdjust="spacing" textLength="58" x="728" y="155.8198">useragent</text><ellipse cx="719" cy="165.4141" fill="none" rx="3" ry="3" style="stroke:#038048;stroke-width:1.0;"/><text fill="#000000" font-family="sans-serif" font-size="11" lengthAdjust="spacing" textLength="70" x="728" y="168.6245">session_key</text><line style="stroke:#A80036;stroke-width:1.5;" x1="709" x2="877" y1="175.2188" y2="175.2188"/><rect fill="#F24D5C" height="6" style="stroke:#C82930;stroke-width:1.0;" width="6" x="716" y="183.2188"/><text fill="#000000" font-family="sans-serif" font-size="11" font-style="italic" lengthAdjust="spacing" textLength="41" x="728" y="189.4292">_login()</text><rect fill="#F24D5C" height="6" style="stroke:#C82930;stroke-width:1.0;" width="6" x="716" y="196.0234"/><text fill="#000000" font-family="sans-serif" font-size="11" font-style="italic" lengthAdjust="spacing" textLength="91" x="728" y="202.2339">_process_login()</text><rect fill="#F24D5C" height="6" style="stroke:#C82930;stroke-width:1.0;" width="6" x="716" y="208.8281"/><text fill="#000000" font-family="sans-serif" font-size="11" font-style="italic" lengthAdjust="spacing" textLength="94" x="728" y="215.0386">_check_session()</text><rect fill="#F24D5C" height="6" style="stroke:#C82930;stroke-width:1.0;" width="6" x="716" y="221.6328"/><text fill="#000000" font-family="sans-serif" font-size="11" font-style="italic" lengthAdjust="spacing" textLength="144" x="728" y="227.8433">_process_check_session()</text><!--MD5=[8370553843340c656d698f0a44b9443b]
class common.mixins.AsyncMixin--><rect codeLine="24" fill="#FEFECE" filter="url(#f1w2p1q2hd3ux4)" height="52.8047" id="common.mixins.AsyncMixin" style="stroke:#A80036;stroke-width:1.5;" width="99" x="664.5" y="364.5"/><ellipse cx="679.5" cy="380.5" fill="#B4A7E5" rx="11" ry="11" style="stroke:#A80036;stroke-width:1.0;"/><path d="M675.4219,376.2656 L675.4219,374.1094 L682.8125,374.1094 L682.8125,376.2656 L680.3438,376.2656 L680.3438,384.3438 L682.8125,384.3438 L682.8125,386.5 L675.4219,386.5 L675.4219,384.3438 L677.8906,384.3438 L677.8906,376.2656 L675.4219,376.2656 Z " fill="#000000"/><text fill="#000000" font-family="sans-serif" font-size="12" font-style="italic" lengthAdjust="spacing" textLength="67" x="693.5" y="384.6543">AsyncMixin</text><line style="stroke:#A80036;stroke-width:1.5;" x1="665.5" x2="762.5" y1="396.5" y2="396.5"/><ellipse cx="675.5" cy="407.5" fill="none" rx="3" ry="3" style="stroke:#038048;stroke-width:1.0;"/><text fill="#000000" font-family="sans-serif" font-size="11" lengthAdjust="spacing" textLength="45" x="684.5" y="410.7104">session</text><!--MD5=[4ed3986bb33a6c6de6dcbbf1964b8b19]
class common.mixins.AsyncXmlAuthMixin--><rect codeLine="28" fill="#FEFECE" filter="url(#f1w2p1q2hd3ux4)" height="91.2188" id="common.mixins.AsyncXmlAuthMixin" style="stroke:#A80036;stroke-width:1.5;" width="175" x="454.5" y="345.5"/><ellipse cx="480.75" cy="361.5" fill="#B4A7E5" rx="11" ry="11" style="stroke:#A80036;stroke-width:1.0;"/><path d="M476.6719,357.2656 L476.6719,355.1094 L484.0625,355.1094 L484.0625,357.2656 L481.5938,357.2656 L481.5938,365.3438 L484.0625,365.3438 L484.0625,367.5 L476.6719,367.5 L476.6719,365.3438 L479.1406,365.3438 L479.1406,357.2656 L476.6719,357.2656 Z " fill="#000000"/><text fill="#000000" font-family="sans-serif" font-size="12" font-style="italic" lengthAdjust="spacing" textLength="118" x="497.25" y="365.6543">AsyncXmlAuthMixin</text><line style="stroke:#A80036;stroke-width:1.5;" x1="455.5" x2="628.5" y1="377.5" y2="377.5"/><rect fill="#F24D5C" height="6" style="stroke:#C82930;stroke-width:1.0;" width="6" x="462.5" y="385.5"/><text fill="#000000" font-family="sans-serif" font-size="11" lengthAdjust="spacing" textLength="41" x="474.5" y="391.7104">_login()</text><rect fill="#F24D5C" height="6" style="stroke:#C82930;stroke-width:1.0;" width="6" x="462.5" y="398.3047"/><text fill="#000000" font-family="sans-serif" font-size="11" lengthAdjust="spacing" textLength="97" x="474.5" y="404.5151">_check_session()</text><rect fill="#F24D5C" height="6" style="stroke:#C82930;stroke-width:1.0;" width="6" x="462.5" y="411.1094"/><text fill="#000000" font-family="sans-serif" font-size="11" lengthAdjust="spacing" textLength="93" x="474.5" y="417.3198">_process_login()</text><rect fill="#F24D5C" height="6" style="stroke:#C82930;stroke-width:1.0;" width="6" x="462.5" y="423.9141"/><text fill="#000000" font-family="sans-serif" font-size="11" lengthAdjust="spacing" textLength="149" x="474.5" y="430.1245">_process_check_session()</text><!--MD5=[0e20bde410acad0d1807dd66ce71866f]
class common.mixins.SyncMixin--><rect codeLine="35" fill="#FEFECE" filter="url(#f1w2p1q2hd3ux4)" height="52.8047" id="common.mixins.SyncMixin" style="stroke:#A80036;stroke-width:1.5;" width="93" x="990.5" y="364.5"/><ellipse cx="1005.5" cy="380.5" fill="#B4A7E5" rx="11" ry="11" style="stroke:#A80036;stroke-width:1.0;"/><path d="M1001.4219,376.2656 L1001.4219,374.1094 L1008.8125,374.1094 L1008.8125,376.2656 L1006.3438,376.2656 L1006.3438,384.3438 L1008.8125,384.3438 L1008.8125,386.5 L1001.4219,386.5 L1001.4219,384.3438 L1003.8906,384.3438 L1003.8906,376.2656 L1001.4219,376.2656 Z " fill="#000000"/><text fill="#000000" font-family="sans-serif" font-size="12" font-style="italic" lengthAdjust="spacing" textLength="61" x="1019.5" y="384.6543">SyncMixin</text><line style="stroke:#A80036;stroke-width:1.5;" x1="991.5" x2="1082.5" y1="396.5" y2="396.5"/><ellipse cx="1001.5" cy="407.5" fill="none" rx="3" ry="3" style="stroke:#038048;stroke-width:1.0;"/><text fill="#000000" font-family="sans-serif" font-size="11" lengthAdjust="spacing" textLength="45" x="1010.5" y="410.7104">session</text><!--MD5=[ede3e645c10f7fb76526ea122c879bc3]
class common.mixins.SyncXmlAuthMixin--><rect codeLine="39" fill="#FEFECE" filter="url(#f1w2p1q2hd3ux4)" height="91.2188" id="common.mixins.SyncXmlAuthMixin" style="stroke:#A80036;stroke-width:1.5;" width="157" x="798.5" y="345.5"/><ellipse cx="819.35" cy="361.5" fill="#B4A7E5" rx="11" ry="11" style="stroke:#A80036;stroke-width:1.0;"/><path d="M815.2719,357.2656 L815.2719,355.1094 L822.6625,355.1094 L822.6625,357.2656 L820.1938,357.2656 L820.1938,365.3438 L822.6625,365.3438 L822.6625,367.5 L815.2719,367.5 L815.2719,365.3438 L817.7406,365.3438 L817.7406,357.2656 L815.2719,357.2656 Z " fill="#000000"/><text fill="#000000" font-family="sans-serif" font-size="12" font-style="italic" lengthAdjust="spacing" textLength="112" x="834.65" y="365.6543">SyncXmlAuthMixin</text><line style="stroke:#A80036;stroke-width:1.5;" x1="799.5" x2="954.5" y1="377.5" y2="377.5"/><rect fill="#F24D5C" height="6" style="stroke:#C82930;stroke-width:1.0;" width="6" x="806.5" y="385.5"/><text fill="#000000" font-family="sans-serif" font-size="11" lengthAdjust="spacing" textLength="41" x="818.5" y="391.7104">_login()</text><rect fill="#F24D5C" height="6" style="stroke:#C82930;stroke-width:1.0;" width="6" x="806.5" y="398.3047"/><text fill="#000000" font-family="sans-serif" font-size="11" lengthAdjust="spacing" textLength="97" x="818.5" y="404.5151">_check_session()</text><rect fill="#F24D5C" height="6" style="stroke:#C82930;stroke-width:1.0;" width="6" x="806.5" y="411.1094"/><text fill="#000000" font-family="sans-serif" font-size="11" lengthAdjust="spacing" textLength="93" x="818.5" y="417.3198">_process_login()</text><rect fill="#F24D5C" height="6" style="stroke:#C82930;stroke-width:1.0;" width="6" x="806.5" y="423.9141"/><text fill="#000000" font-family="sans-serif" font-size="11" lengthAdjust="spacing" textLength="131" x="818.5" y="430.1245">_process_check_login()</text><!--MD5=[ff5e2659b0c0634defd2151629dbc8f3]
class qrz.qrz.QrzClientAbc--><rect codeLine="50" fill="#FEFECE" filter="url(#f1w2p1q2hd3ux4)" height="78.4141" id="qrz.qrz.QrzClientAbc" style="stroke:#A80036;stroke-width:1.5;" width="131" x="218.5" y="352"/><ellipse cx="243.4" cy="368" fill="#A9DCDF" rx="11" ry="11" style="stroke:#A80036;stroke-width:1.0;"/><path d="M243.5094,363.3438 L242.3531,368.4219 L244.6813,368.4219 L243.5094,363.3438 Z M242.025,361.1094 L245.0094,361.1094 L248.3688,373.5 L245.9156,373.5 L245.15,370.4375 L241.8688,370.4375 L241.1188,373.5 L238.6813,373.5 L242.025,361.1094 Z " fill="#000000"/><text fill="#000000" font-family="sans-serif" font-size="12" font-style="italic" lengthAdjust="spacing" textLength="77" x="259.6" y="372.1543">QrzClientAbc</text><line style="stroke:#A80036;stroke-width:1.5;" x1="219.5" x2="348.5" y1="384" y2="384"/><ellipse cx="229.5" cy="395" fill="#84BE84" rx="3" ry="3" style="stroke:#038048;stroke-width:1.0;"/><text fill="#000000" font-family="sans-serif" font-size="11" font-style="italic" lengthAdjust="spacing" textLength="46" x="238.5" y="398.2104">search()</text><rect fill="#F24D5C" height="6" style="stroke:#C82930;stroke-width:1.0;" width="6" x="226.5" y="404.8047"/><text fill="#000000" font-family="sans-serif" font-size="11" font-style="italic" lengthAdjust="spacing" textLength="67" x="238.5" y="411.0151">_do_query()</text><rect fill="#F24D5C" height="6" style="stroke:#C82930;stroke-width:1.0;" width="6" x="226.5" y="417.6094"/><text fill="#000000" font-family="sans-serif" font-size="11" lengthAdjust="spacing" textLength="105" x="238.5" y="423.8198">_process_search()</text><!--MD5=[0e3c59cddabe99b494a3a63d004ccba6]
class qrz.qrzasync.QrzAsyncClient--><rect codeLine="58" fill="#FEFECE" filter="url(#f1w2p1q2hd3ux4)" height="65.6094" id="qrz.qrzasync.QrzAsyncClient" style="stroke:#A80036;stroke-width:1.5;" width="122" x="56" y="535.5"/><ellipse cx="71" cy="551.5" fill="#ADD1B2" rx="11" ry="11" style="stroke:#A80036;stroke-width:1.0;"/><path d="M73.9688,557.1406 Q73.3906,557.4375 72.75,557.5781 Q72.1094,557.7344 71.4063,557.7344 Q68.9063,557.7344 67.5781,556.0938 Q66.2656,554.4375 66.2656,551.3125 Q66.2656,548.1875 67.5781,546.5313 Q68.9063,544.875 71.4063,544.875 Q72.1094,544.875 72.75,545.0313 Q73.4063,545.1875 73.9688,545.4844 L73.9688,548.2031 Q73.3438,547.625 72.75,547.3594 Q72.1563,547.0781 71.5313,547.0781 Q70.1875,547.0781 69.5,548.1563 Q68.8125,549.2188 68.8125,551.3125 Q68.8125,553.4063 69.5,554.4844 Q70.1875,555.5469 71.5313,555.5469 Q72.1563,555.5469 72.75,555.2813 Q73.3438,555 73.9688,554.4219 L73.9688,557.1406 Z " fill="#000000"/><text fill="#000000" font-family="sans-serif" font-size="12" lengthAdjust="spacing" textLength="90" x="85" y="555.6543">QrzAsyncClient</text><line style="stroke:#A80036;stroke-width:1.5;" x1="57" x2="177" y1="567.5" y2="567.5"/><ellipse cx="67" cy="578.5" fill="#84BE84" rx="3" ry="3" style="stroke:#038048;stroke-width:1.0;"/><text fill="#000000" font-family="sans-serif" font-size="11" lengthAdjust="spacing" textLength="47" x="76" y="581.7104">search()</text><rect fill="#F24D5C" height="6" style="stroke:#C82930;stroke-width:1.0;" width="6" x="64" y="588.3047"/><text fill="#000000" font-family="sans-serif" font-size="11" lengthAdjust="spacing" textLength="66" x="76" y="594.5151">_do_query()</text><!--MD5=[6afe11c14b30d11bf3b9ed7bc3b01253]
class qrz.qrzsync.QrzSyncClient--><rect codeLine="65" fill="#FEFECE" filter="url(#f1w2p1q2hd3ux4)" height="65.6094" id="qrz.qrzsync.QrzSyncClient" style="stroke:#A80036;stroke-width:1.5;" width="115" x="234.5" y="535.5"/><ellipse cx="249.5" cy="551.5" fill="#ADD1B2" rx="11" ry="11" style="stroke:#A80036;stroke-width:1.0;"/><path d="M252.4688,557.1406 Q251.8906,557.4375 251.25,557.5781 Q250.6094,557.7344 249.9063,557.7344 Q247.4063,557.7344 246.0781,556.0938 Q244.7656,554.4375 244.7656,551.3125 Q244.7656,548.1875 246.0781,546.5313 Q247.4063,544.875 249.9063,544.875 Q250.6094,544.875 251.25,545.0313 Q251.9063,545.1875 252.4688,545.4844 L252.4688,548.2031 Q251.8438,547.625 251.25,547.3594 Q250.6563,547.0781 250.0313,547.0781 Q248.6875,547.0781 248,548.1563 Q247.3125,549.2188 247.3125,551.3125 Q247.3125,553.4063 248,554.4844 Q248.6875,555.5469 250.0313,555.5469 Q250.6563,555.5469 251.25,555.2813 Q251.8438,555 252.4688,554.4219 L252.4688,557.1406 Z " fill="#000000"/><text fill="#000000" font-family="sans-serif" font-size="12" lengthAdjust="spacing" textLength="83" x="263.5" y="555.6543">QrzSyncClient</text><line style="stroke:#A80036;stroke-width:1.5;" x1="235.5" x2="348.5" y1="567.5" y2="567.5"/><ellipse cx="245.5" cy="578.5" fill="#84BE84" rx="3" ry="3" style="stroke:#038048;stroke-width:1.0;"/><text fill="#000000" font-family="sans-serif" font-size="11" lengthAdjust="spacing" textLength="47" x="254.5" y="581.7104">search()</text><rect fill="#F24D5C" height="6" style="stroke:#C82930;stroke-width:1.0;" width="6" x="242.5" y="588.3047"/><text fill="#000000" font-family="sans-serif" font-size="11" lengthAdjust="spacing" textLength="66" x="254.5" y="594.5151">_do_query()</text><!--MD5=[d0c435b017c70a9b70cca991e962d100]
class callook.callook.CallookClientAbc--><rect codeLine="74" fill="#FEFECE" filter="url(#f1w2p1q2hd3ux4)" height="65.6094" id="callook.callook.CallookClientAbc" style="stroke:#A80036;stroke-width:1.5;" width="135" x="1190.5" y="358"/><ellipse cx="1205.5" cy="374" fill="#ADD1B2" rx="11" ry="11" style="stroke:#A80036;stroke-width:1.0;"/><path d="M1208.4688,379.6406 Q1207.8906,379.9375 1207.25,380.0781 Q1206.6094,380.2344 1205.9063,380.2344 Q1203.4063,380.2344 1202.0781,378.5938 Q1200.7656,376.9375 1200.7656,373.8125 Q1200.7656,370.6875 1202.0781,369.0313 Q1203.4063,367.375 1205.9063,367.375 Q1206.6094,367.375 1207.25,367.5313 Q1207.9063,367.6875 1208.4688,367.9844 L1208.4688,370.7031 Q1207.8438,370.125 1207.25,369.8594 Q1206.6563,369.5781 1206.0313,369.5781 Q1204.6875,369.5781 1204,370.6563 Q1203.3125,371.7188 1203.3125,373.8125 Q1203.3125,375.9063 1204,376.9844 Q1204.6875,378.0469 1206.0313,378.0469 Q1206.6563,378.0469 1207.25,377.7813 Q1207.8438,377.5 1208.4688,376.9219 L1208.4688,379.6406 Z " fill="#000000"/><text fill="#000000" font-family="sans-serif" font-size="12" lengthAdjust="spacing" textLength="103" x="1219.5" y="378.1543">CallookClientAbc</text><line style="stroke:#A80036;stroke-width:1.5;" x1="1191.5" x2="1324.5" y1="390" y2="390"/><ellipse cx="1201.5" cy="401" fill="#84BE84" rx="3" ry="3" style="stroke:#038048;stroke-width:1.0;"/><text fill="#000000" font-family="sans-serif" font-size="11" lengthAdjust="spacing" textLength="47" x="1210.5" y="404.2104">search()</text><rect fill="#F24D5C" height="6" style="stroke:#C82930;stroke-width:1.0;" width="6" x="1198.5" y="410.8047"/><text fill="#000000" font-family="sans-serif" font-size="11" lengthAdjust="spacing" textLength="66" x="1210.5" y="417.0151">_do_query()</text><!--MD5=[73f56d7bb22dcbd52190497e6423d462]
class callook.callookasync.CallookAsyncClient--><rect codeLine="80" fill="#FEFECE" filter="url(#f1w2p1q2hd3ux4)" height="65.6094" id="callook.callookasync.CallookAsyncClient" style="stroke:#A80036;stroke-width:1.5;" width="148" x="1385" y="535.5"/><ellipse cx="1400" cy="551.5" fill="#ADD1B2" rx="11" ry="11" style="stroke:#A80036;stroke-width:1.0;"/><path d="M1402.9688,557.1406 Q1402.3906,557.4375 1401.75,557.5781 Q1401.1094,557.7344 1400.4063,557.7344 Q1397.9063,557.7344 1396.5781,556.0938 Q1395.2656,554.4375 1395.2656,551.3125 Q1395.2656,548.1875 1396.5781,546.5313 Q1397.9063,544.875 1400.4063,544.875 Q1401.1094,544.875 1401.75,545.0313 Q1402.4063,545.1875 1402.9688,545.4844 L1402.9688,548.2031 Q1402.3438,547.625 1401.75,547.3594 Q1401.1563,547.0781 1400.5313,547.0781 Q1399.1875,547.0781 1398.5,548.1563 Q1397.8125,549.2188 1397.8125,551.3125 Q1397.8125,553.4063 1398.5,554.4844 Q1399.1875,555.5469 1400.5313,555.5469 Q1401.1563,555.5469 1401.75,555.2813 Q1402.3438,555 1402.9688,554.4219 L1402.9688,557.1406 Z " fill="#000000"/><text fill="#000000" font-family="sans-serif" font-size="12" lengthAdjust="spacing" textLength="116" x="1414" y="555.6543">CallookAsyncClient</text><line style="stroke:#A80036;stroke-width:1.5;" x1="1386" x2="1532" y1="567.5" y2="567.5"/><ellipse cx="1396" cy="578.5" fill="#84BE84" rx="3" ry="3" style="stroke:#038048;stroke-width:1.0;"/><text fill="#000000" font-family="sans-serif" font-size="11" lengthAdjust="spacing" textLength="47" x="1405" y="581.7104">search()</text><rect fill="#F24D5C" height="6" style="stroke:#C82930;stroke-width:1.0;" width="6" x="1393" y="588.3047"/><text fill="#000000" font-family="sans-serif" font-size="11" lengthAdjust="spacing" textLength="66" x="1405" y="594.5151">_do_query()</text><!--MD5=[a4fd7314f0d92a976a417716bc1e74ad]
class callook.callooksync.CallookSyncClient--><rect codeLine="86" fill="#FEFECE" filter="url(#f1w2p1q2hd3ux4)" height="65.6094" id="callook.callooksync.CallookSyncClient" style="stroke:#A80036;stroke-width:1.5;" width="141" x="1187.5" y="535.5"/><ellipse cx="1202.5" cy="551.5" fill="#ADD1B2" rx="11" ry="11" style="stroke:#A80036;stroke-width:1.0;"/><path d="M1205.4688,557.1406 Q1204.8906,557.4375 1204.25,557.5781 Q1203.6094,557.7344 1202.9063,557.7344 Q1200.4063,557.7344 1199.0781,556.0938 Q1197.7656,554.4375 1197.7656,551.3125 Q1197.7656,548.1875 1199.0781,546.5313 Q1200.4063,544.875 1202.9063,544.875 Q1203.6094,544.875 1204.25,545.0313 Q1204.9063,545.1875 1205.4688,545.4844 L1205.4688,548.2031 Q1204.8438,547.625 1204.25,547.3594 Q1203.6563,547.0781 1203.0313,547.0781 Q1201.6875,547.0781 1201,548.1563 Q1200.3125,549.2188 1200.3125,551.3125 Q1200.3125,553.4063 1201,554.4844 Q1201.6875,555.5469 1203.0313,555.5469 Q1203.6563,555.5469 1204.25,555.2813 Q1204.8438,555 1205.4688,554.4219 L1205.4688,557.1406 Z " fill="#000000"/><text fill="#000000" font-family="sans-serif" font-size="12" lengthAdjust="spacing" textLength="109" x="1216.5" y="555.6543">CallookSyncClient</text><line style="stroke:#A80036;stroke-width:1.5;" x1="1188.5" x2="1327.5" y1="567.5" y2="567.5"/><ellipse cx="1198.5" cy="578.5" fill="#84BE84" rx="3" ry="3" style="stroke:#038048;stroke-width:1.0;"/><text fill="#000000" font-family="sans-serif" font-size="11" lengthAdjust="spacing" textLength="47" x="1207.5" y="581.7104">search()</text><rect fill="#F24D5C" height="6" style="stroke:#C82930;stroke-width:1.0;" width="6" x="1195.5" y="588.3047"/><text fill="#000000" font-family="sans-serif" font-size="11" lengthAdjust="spacing" textLength="66" x="1207.5" y="594.5151">_do_query()</text><!--MD5=[ecb9a05a69ad9b200c9196e63e829acc]
reverse link qrz.qrz.QrzClientAbc to qrz.qrzasync.QrzAsyncClient--><path codeLine="93" d="M233.72,444.84 C205.66,474.32 171.63,510.09 147.57,535.37 " fill="none" id="qrz.qrz.QrzClientAbc-backto-qrz.qrzasync.QrzAsyncClient" style="stroke:#A80036;stroke-width:1.0;"/><polygon fill="none" points="228.91,439.74,247.76,430.08,239.05,449.39,228.91,439.74" style="stroke:#A80036;stroke-width:1.0;"/><!--MD5=[89a9693cce6260e3cd2e367d6b633af1]
reverse link common.mixins.AsyncMixin to qrz.qrzasync.QrzAsyncClient--><path codeLine="94" d="M693.95,435.42 C682.92,454.03 667.3,473.9 647,484.5 C625.87,495.53 240.56,484.81 218,492.5 C192.37,501.24 167.87,519.11 149.42,535.22 " fill="none" id="common.mixins.AsyncMixin-backto-qrz.qrzasync.QrzAsyncClient" style="stroke:#A80036;stroke-width:1.0;"/><polygon fill="none" points="687.86,431.97,703.46,417.62,700.21,438.56,687.86,431.97" style="stroke:#A80036;stroke-width:1.0;"/><!--MD5=[9a66aa94a4b857c1b7de5e6dd19a9a12]
reverse link common.mixins.AsyncXmlAuthMixin to qrz.qrzasync.QrzAsyncClient--><path codeLine="95" d="M456.17,446.52 C428.43,461.53 396.85,476 366,484.5 C334.25,493.25 248.98,481.32 218,492.5 C192.73,501.62 168.43,519.29 150,535.19 " fill="none" id="common.mixins.AsyncXmlAuthMixin-backto-qrz.qrzasync.QrzAsyncClient" style="stroke:#A80036;stroke-width:1.0;"/><polygon fill="none" points="452.93,440.31,473.8,436.64,459.78,452.52,452.93,440.31" style="stroke:#A80036;stroke-width:1.0;"/><!--MD5=[b8ecc72dc9d74ddcb723d4982f31cebd]
reverse link qrz.qrz.QrzClientAbc to qrz.qrzsync.QrzSyncClient--><path codeLine="97" d="M286.65,450.18 C287.95,478.55 289.45,511.6 290.54,535.37 " fill="none" id="qrz.qrz.QrzClientAbc-backto-qrz.qrzsync.QrzSyncClient" style="stroke:#A80036;stroke-width:1.0;"/><polygon fill="none" points="279.65,450.38,285.74,430.08,293.64,449.74,279.65,450.38" style="stroke:#A80036;stroke-width:1.0;"/><!--MD5=[549d255ac0e71e545622b04d01582502]
reverse link common.mixins.SyncMixin to qrz.qrzsync.QrzSyncClient--><path codeLine="98" d="M1017.03,435.75 C1006.52,453.79 991.86,473.11 973,484.5 C868.44,547.66 494.22,562.89 349.61,566.45 " fill="none" id="common.mixins.SyncMixin-backto-qrz.qrzsync.QrzSyncClient" style="stroke:#A80036;stroke-width:1.0;"/><polygon fill="none" points="1010.97,432.24,1026.47,417.8,1023.36,438.76,1010.97,432.24" style="stroke:#A80036;stroke-width:1.0;"/><!--MD5=[8a4ef978154019e781eaf3266f745d25]
reverse link common.mixins.SyncXmlAuthMixin to qrz.qrzsync.QrzSyncClient--><path codeLine="99" d="M826.66,451.25 C813.07,464.02 797.51,476.16 781,484.5 C706.15,522.29 462.18,550.62 349.73,562.01 " fill="none" id="common.mixins.SyncXmlAuthMixin-backto-qrz.qrzsync.QrzSyncClient" style="stroke:#A80036;stroke-width:1.0;"/><polygon fill="none" points="822.04,445.97,841.12,436.75,831.96,455.85,822.04,445.97" style="stroke:#A80036;stroke-width:1.0;"/><!--MD5=[efe57a43c1b2f49635531c1194ef7dd9]
reverse link common.abcs.LookupClientAbc to qrz.qrz.QrzClientAbc--><path codeLine="101" d="M519.77,211.52 C493.16,228.28 463.99,247.38 438,266 C400.05,293.19 358.96,326.49 328.78,351.73 " fill="none" id="common.abcs.LookupClientAbc-backto-qrz.qrz.QrzClientAbc" style="stroke:#A80036;stroke-width:1.0;"/><polygon fill="none" points="516.15,205.52,536.82,200.87,523.57,217.4,516.15,205.52" style="stroke:#A80036;stroke-width:1.0;"/><!--MD5=[79fc6794ef6ce6f4c8b30226d6f8269e]
reverse link callook.callook.CallookClientAbc to callook.callookasync.CallookAsyncClient--><path codeLine="103" d="M1310.17,437.55 C1345.25,468.18 1390.64,507.82 1422.03,535.22 " fill="none" id="callook.callook.CallookClientAbc-backto-callook.callookasync.CallookAsyncClient" style="stroke:#A80036;stroke-width:1.0;"/><polygon fill="none" points="1305.33,442.62,1294.87,424.19,1314.54,432.07,1305.33,442.62" style="stroke:#A80036;stroke-width:1.0;"/><!--MD5=[c986e41b055de0802c5f0eda858395d9]
reverse link common.mixins.AsyncMixin to callook.callookasync.CallookAsyncClient--><path codeLine="104" d="M734.03,435.46 C745.05,454.08 760.68,473.94 781,484.5 C808.81,498.94 1315.05,483.3 1345,492.5 C1373.19,501.16 1400.93,519.14 1421.98,535.32 " fill="none" id="common.mixins.AsyncMixin-backto-callook.callookasync.CallookAsyncClient" style="stroke:#A80036;stroke-width:1.0;"/><polygon fill="none" points="727.76,438.59,724.53,417.65,740.11,432,727.76,438.59" style="stroke:#A80036;stroke-width:1.0;"/><!--MD5=[d8e7de031d6ac59414aa4e201fd49b8e]
reverse link callook.callook.CallookClientAbc to callook.callooksync.CallookSyncClient--><path codeLine="106" d="M1258,444.31 C1258,473.83 1258,509.79 1258,535.22 " fill="none" id="callook.callook.CallookClientAbc-backto-callook.callooksync.CallookSyncClient" style="stroke:#A80036;stroke-width:1.0;"/><polygon fill="none" points="1251,444.19,1258,424.19,1265,444.19,1251,444.19" style="stroke:#A80036;stroke-width:1.0;"/><!--MD5=[8bbe8df38b04a806a3f438e27a9d527f]
reverse link common.mixins.SyncMixin to callook.callooksync.CallookSyncClient--><path codeLine="107" d="M1085.04,430.15 C1124.65,461.6 1180.21,505.72 1217.57,535.39 " fill="none" id="common.mixins.SyncMixin-backto-callook.callooksync.CallookSyncClient" style="stroke:#A80036;stroke-width:1.0;"/><polygon fill="none" points="1080.44,435.44,1069.14,417.52,1089.15,424.48,1080.44,435.44" style="stroke:#A80036;stroke-width:1.0;"/><!--MD5=[eb1b85e818d4e6859ea607624762659a]
reverse link common.abcs.LookupClientAbc to callook.callook.CallookClientAbc--><path codeLine="109" d="M647.47,224.12 C659.79,237.73 674.44,250.31 691,258 C732.12,277.11 1056.27,250.84 1099,266 C1151.29,284.55 1199.78,327.67 1229.13,357.81 " fill="none" id="common.abcs.LookupClientAbc-backto-callook.callook.CallookClientAbc" style="stroke:#A80036;stroke-width:1.0;"/><polygon fill="none" points="641.92,228.39,634.59,208.51,652.72,219.48,641.92,228.39" style="stroke:#A80036;stroke-width:1.0;"/><!--MD5=[992263449fddcadd937d96be284546b7]
reverse link common.abcs.AuthMixinAbc to common.mixins.AsyncXmlAuthMixin--><path codeLine="111" d="M710.39,246.32 C704.1,250.66 697.62,254.61 691,258 C673.3,267.05 664.21,256.05 647,266 C614.27,284.91 587.04,318 568.51,345.24 " fill="none" id="common.abcs.AuthMixinAbc-backto-common.mixins.AsyncXmlAuthMixin" style="stroke:#A80036;stroke-width:1.0;"/><polygon fill="none" points="706.36,240.58,726.51,234.04,714.84,251.72,706.36,240.58" style="stroke:#A80036;stroke-width:1.0;"/><!--MD5=[95a2e22cd550707a797007aa2c76a65e]
reverse link common.abcs.AuthMixinAbc to common.mixins.SyncXmlAuthMixin--><path codeLine="112" d="M826.95,252.96 C838.58,284.81 851.07,319 860.66,345.26 " fill="none" id="common.abcs.AuthMixinAbc-backto-common.mixins.SyncXmlAuthMixin" style="stroke:#A80036;stroke-width:1.0;"/><polygon fill="none" points="820.33,255.23,820.04,234.04,833.48,250.42,820.33,255.23" style="stroke:#A80036;stroke-width:1.0;"/><!--MD5=[afdcbc2e9c258498411cab65b0a10261]
@startuml cltinheritance

namespace common {
    namespace abcs {
        abstract LookupClientAbc {
            + {abstract} session
            + {abstract} search()
            - {abstract} _process_search()
            - {abstract} _do_query()
        }

        abstract AuthMixinAbc {
            + username
            + password
            + useragent
            + session_key
            - {abstract} _login()
            - {abstract} _process_login()
            - {abstract} _check_session()
            - {abstract} _process_check_session()
        }
    }

    namespace mixins {
        interface AsyncMixin {
            + session
        }

        interface AsyncXmlAuthMixin {
            - _login()
            - _check_session()
            - _process_login()
            - _process_check_session()
        }

        interface SyncMixin {
            + session
        }

        interface SyncXmlAuthMixin {
            - _login()
            - _check_session()
            - _process_login()
            - _process_check_login()
        }
    }
}

namespace qrz {
    namespace qrz {
        abstract QrzClientAbc {
            + {abstract} search()
            - {abstract} _do_query()
            - _process_search()
        }
    }

    namespace qrzasync {
        class QrzAsyncClient {
            + search()
            - _do_query()
        }
    }

    namespace qrzsync {
        class QrzSyncClient {
            + search()
            - _do_query()
        }
    }
}

namespace callook {
    namespace callook {
        class CallookClientAbc {
            + search()
            - _do_query()
        }
    }
    namespace callookasync {
        class CallookAsyncClient {
            + search()
            - _do_query()
        }
    }
    namespace callooksync {
        class CallookSyncClient {
            + search()
            - _do_query()
        }
    }
}

qrz.qrz.QrzClientAbc <|- - qrz.qrzasync.QrzAsyncClient
common.mixins.AsyncMixin <|- - qrz.qrzasync.QrzAsyncClient
common.mixins.AsyncXmlAuthMixin <|- - qrz.qrzasync.QrzAsyncClient

qrz.qrz.QrzClientAbc <|- - qrz.qrzsync.QrzSyncClient
common.mixins.SyncMixin <|- - qrz.qrzsync.QrzSyncClient
common.mixins.SyncXmlAuthMixin <|- - qrz.qrzsync.QrzSyncClient

common.abcs.LookupClientAbc <|- - qrz.qrz.QrzClientAbc

callook.callook.CallookClientAbc <|- - callook.callookasync.CallookAsyncClient
common.mixins.AsyncMixin <|- - callook.callookasync.CallookAsyncClient

callook.callook.CallookClientAbc <|- - callook.callooksync.CallookSyncClient
common.mixins.SyncMixin <|- - callook.callooksync.CallookSyncClient

common.abcs.LookupClientAbc <|- - callook.callook.CallookClientAbc

common.abcs.AuthMixinAbc <|- - common.mixins.AsyncXmlAuthMixin
common.abcs.AuthMixinAbc <|- - common.mixins.SyncXmlAuthMixin


hide empty members

@enduml

PlantUML version 1.2021.00(Sun Jan 10 05:25:05 EST 2021)
(GPL source distribution)
Java Runtime: OpenJDK Runtime Environment
JVM: OpenJDK 64-Bit Server VM
Default Encoding: UTF-8
Language: en
Country: US
--></g></svg>